<svg version="1.2" baseProfile="tiny-ps" xmlns="http://www.w3.org/2000/svg" viewBox="0 0 22 22" width="22" height="22">
	<title>Footer</title>
	<style>
		tspan { white-space:pre }
		.s0 { fill: #ffffff } 
	</style>
	<g id="Footer">
		<g id="Subsicribe">
			<g id="Subscribe">
				<path id="10" class="s0" d="m10.93 22c0 0-4.11-7.5-4.1-7.49c0.04 0.04-6.83-4.08-6.83-4.08c0 0 20.38-9.83 21.17-10.21c0.51-0.21 0.83 0.26 0.68 0.68c-0.17 0.34-10.93 21.11-10.93 21.11zm8.25-18.53l-10.97 10.39c0.6 1.34 2.72 5.42 2.72 5.42l8.25-15.81zm-11.66 9.68c0 0 0.01 0.01 0.02 0.02l10.75-10.18l-15.55 7.44c0 0 4.77 2.71 4.78 2.72z" />
			</g>
		</g>
	</g>
</svg>